# xmcd
#
# Track frame offsets:
#       150
#       22451
#       47274
#       83552
#       115049
#       148001
#       162675
#       201435
#
# Disc length: 2950 seconds
#
# Revision: 0
# Processed by: cddbd v1.4PL0 Copyright (c) Steve Scherf et al.
# Submitted via: CD-DA_X-Tractor v0.21
#
DISCID=6d0b8408
DTITLE=Living Stones - Before I Met You, Jesus
DYEAR=1900
DGENRE=
TTITLE0=Sunday Morning Born Again Good Time Blues
TTITLE1=Before I Met you, Jesus
TTITLE2=Valley of the Blues
TTITLE3=Just a Closer Walk 
TTITLE4=Walk to Calvary
TTITLE5=Jesus is the Rock
TTITLE6=Loser (Midnight Creeper)
TTITLE7=Grace
EXTD=
EXTT0=
EXTT1=
EXTT2=
EXTT3=
EXTT4=
EXTT5=
EXTT6=
EXTT7=
PLAYORDER=
